<?xml version="1.0" encoding="UTF-8"?>
<!DOCTYPE svg PUBLIC "-//W3C//DTD SVG 1.1//EN" "http://www.w3.org/Graphics/SVG/1.1/DTD/svg11.dtd">
<!-- Creator: CorelDRAW X8 -->
<svg xmlns="http://www.w3.org/2000/svg" xml:space="preserve" width="280px" height="50px" version="1.1" style="shape-rendering:geometricPrecision; text-rendering:geometricPrecision; image-rendering:optimizeQuality; fill-rule:evenodd; clip-rule:evenodd"
viewBox="0 0 280 50"
 xmlns:xlink="http://www.w3.org/1999/xlink">
 <defs>
  <style type="text/css">
   <![CDATA[
    .fil0 {fill:white}
    .fil3 {fill:black;fill-opacity:0.850980}
    .fil1 {fill:black;fill-rule:nonzero;fill-opacity:0.850980}
    .fil2 {fill:url(#id0)}
   ]]>
  </style>
  <linearGradient id="id0" gradientUnits="userSpaceOnUse" x1="118.447" y1="2.81694" x2="145.339" y2="36.9698">
   <stop offset="0" style="stop-opacity:1; stop-color:#FFCC00"/>
   <stop offset="0.34902" style="stop-opacity:1; stop-color:#FFE48A"/>
   <stop offset="0.65098" style="stop-opacity:1; stop-color:#DEAB21"/>
   <stop offset="0.819608" style="stop-opacity:1; stop-color:#FFDC69"/>
   <stop offset="1" style="stop-opacity:1; stop-color:#CC9933"/>
  </linearGradient>
 </defs>
 <g id="Capa_x0020_1">
  <metadata id="CorelCorpID_0Corel-Layer"/>
  <g id="_1575136657584">
   <rect class="fil0" width="280" height="49.9986"/>
   <g>
    <path class="fil1" d="M57 10l15 0 0 5 -9 0 0 10 7 0 0 5 -7 0 0 15 -6 0 0 -35zm20 0l8 0 5 35 -5 0 -1 -7 0 0 -6 0 -1 7 -6 0 6 -35zm6 24l-2 -18 0 0 -3 18 5 0zm17 12c-3,0 -5,-1 -6,-2 -2,-2 -2,-4 -2,-7l0 -2 5 0 0 2c0,3 1,4 3,4 1,0 1,0 2,-1 0,-1 1,-1 1,-3 0,-1 -1,-2 -1,-4 -1,-1 -2,-2 -4,-4 -2,-2 -4,-3 -5,-5 -1,-2 -1,-4 -1,-6 0,-2 0,-4 2,-6 1,-2 3,-2 6,-2 3,0 5,0 6,2 1,2 2,4 2,7l0 1 -5 0 0 -2c0,-1 0,-2 -1,-2 0,-1 -1,-1 -2,-1 -2,0 -3,1 -3,3 0,1 1,3 1,4 1,1 2,2 4,4 2,2 4,4 5,5 1,2 1,4 1,6 0,3 -1,5 -2,7 -1,1 -4,2 -6,2zm15 -31l-5 0 0 -5 17 0 0 5 -6 0 0 30 -6 0 0 -30z"/>
    <g>
     <path class="fil1" d="M151 10l8 0c3,0 5,1 6,2 1,2 2,4 2,6l0 2c0,2 0,3 -1,4 0,1 -1,2 -3,3l0 0c3,1 5,3 5,7l0 3c0,3 -1,5 -3,6 -1,2 -3,2 -6,2l-8 0 0 -35zm7 15c1,0 2,-1 3,-1 0,-1 0,-2 0,-3l0 -2c0,-1 0,-2 0,-3 -1,0 -1,-1 -2,-1l-3 0 0 10 2 0zm1 15c1,0 2,0 2,0 1,-1 1,-2 1,-3l0 -3c0,-2 0,-3 -1,-4 0,0 -1,0 -3,0l-2 0 0 10 3 0zm20 6c-3,0 -5,-1 -7,-2 -1,-2 -2,-4 -2,-7l0 -27 6 0 0 27c0,2 0,2 1,3 0,1 1,1 2,1 1,0 1,0 2,-1 0,-1 0,-1 0,-3l0 -27 6 0 0 27c0,3 -1,5 -2,7 -2,1 -4,2 -6,2zm17 -16l-7 -20 6 0 4 13 0 0 3 -13 6 0 -7 20 0 15 -5 0 0 -15z"/>
     <path class="fil1" d="M204 35l3 0 1 6 0 0 0 -6 2 0 0 11 -2 0 -2 -8 0 0 0 8 -2 0 0 -11zm7 0l2 0 0 11 -2 0 0 -11zm6 11c-1,0 -1,0 -2,-1 0,0 -1,-1 -1,-2l0 -6c0,-1 1,-1 1,-2 1,0 1,0 2,0 1,0 2,0 2,0 1,1 1,1 1,2l0 1 -2 0 0 -1c0,0 0,-1 -1,-1 0,0 -1,1 -1,1l0 6c0,1 1,1 1,1 1,0 1,0 1,-1l0 -1 2 0 0 1c0,1 0,2 -1,2 0,1 -1,1 -2,1zm4 -2l2 0 0 2 -2 0 0 -2z"/>
    </g>
    <path class="fil0" d="M121 10c0,0 -1,1 -1,1 -1,1 -3,0 -4,-1l0 0 0 0c-1,-1 -1,-2 -1,-4 1,-1 2,-1 3,-2 1,0 2,0 3,1 3,1 6,4 7,8l25 4 0 0c1,0 2,0 2,1 2,2 1,4 0,6 0,2 -1,4 -2,6 -1,3 -2,4 -4,6l-1 0 0 0c-2,1 -5,1 -7,1l-5 0c-1,0 -2,0 -3,0 -2,0 -3,0 -4,-1 0,0 0,0 0,0l0 0 0 0c-1,-1 -2,-2 -3,-3l-2 0c0,0 -1,-1 -2,-1 0,0 0,-1 0,-1 0,-1 0,-2 0,-2 1,-1 2,-1 2,-1l-2 0c-1,0 -2,-1 -2,-2 0,0 0,-1 0,-2 0,0 1,-1 1,-1l0 0c-2,0 -3,-1 -3,-2 0,-2 1,-3 3,-3l2 0c0,0 0,0 0,0 0,-1 0,-2 0,-3 0,-1 -1,-4 -2,-5z"/>
    <path class="fil2" d="M121 6c2,0 4,3 6,8l26 4c2,1 3,2 1,6 -1,4 -2,8 -6,11 -2,1 -5,1 -7,1l-5 0c-3,0 -5,0 -6,-1 -2,-1 -2,-2 -3,-3l-3 0c-1,0 -1,-3 0,-3l11 0c2,0 2,-2 0,-2l-13 0c-2,0 -1,-3 0,-3l8 0c2,0 2,-2 0,-2l-9 0c-2,0 -3,-2 0,-2l4 0c-1,-3 -1,-10 -4,-11 -1,0 -2,2 -4,0 -2,-2 0,-5 4,-3z"/>
    <path class="fil3" d="M130 38c2,0 4,2 4,4 0,2 -2,4 -4,4 -2,0 -3,-2 -3,-4 0,-2 1,-4 3,-4z"/>
    <path class="fil3" d="M141 38c2,0 4,2 4,4 0,2 -2,4 -4,4 -2,0 -4,-2 -4,-4 0,-2 2,-4 4,-4z"/>
   </g>
  </g>
 </g>
</svg>
