<?xml version="1.0" encoding="UTF-8"?>
<!DOCTYPE svg PUBLIC "-//W3C//DTD SVG 1.1//EN" "http://www.w3.org/Graphics/SVG/1.1/DTD/svg11.dtd">
<!-- Creator: CorelDRAW X8 -->
<svg xmlns="http://www.w3.org/2000/svg" xml:space="preserve" width="280px" height="50px" version="1.1" style="shape-rendering:geometricPrecision; text-rendering:geometricPrecision; image-rendering:optimizeQuality; fill-rule:evenodd; clip-rule:evenodd"
viewBox="0 0 280 50"
 xmlns:xlink="http://www.w3.org/1999/xlink">
 <defs>
  <style type="text/css">
   <![CDATA[
    .fil0 {fill:white}
    .fil2 {fill:black;fill-opacity:0.850980}
    .fil1 {fill:url(#id0)}
    .fil3 {fill:url(#id1)}
    .fil4 {fill:url(#id2)}
   ]]>
  </style>
  <linearGradient id="id0" gradientUnits="userSpaceOnUse" x1="123.676" y1="1.72678" x2="153.004" y2="38.9753">
   <stop offset="0" style="stop-opacity:1; stop-color:#FFCC00"/>
   <stop offset="0.34902" style="stop-opacity:1; stop-color:#FFE48A"/>
   <stop offset="0.65098" style="stop-opacity:1; stop-color:#DEAB21"/>
   <stop offset="0.819608" style="stop-opacity:1; stop-color:#FFDC69"/>
   <stop offset="1" style="stop-opacity:1; stop-color:#CC9933"/>
  </linearGradient>
  <linearGradient id="id1" gradientUnits="userSpaceOnUse" xlink:href="#id0" x1="58.5249" y1="7.41255" x2="96.4951" y2="35.8021">
  </linearGradient>
  <linearGradient id="id2" gradientUnits="userSpaceOnUse" xlink:href="#id0" x1="189.027" y1="-2.26684" x2="207.716" y2="41.3046">
  </linearGradient>
 </defs>
 <g id="Capa_x0020_1">
  <metadata id="CorelCorpID_0Corel-Layer"/>
  <g id="_1574892389776">
   <rect class="fil0" width="280" height="49.9986"/>
   <g>
    <g>
     <path class="fil1" d="M126 5c3,1 5,4 7,9l28 4c2,1 3,3 2,7 -2,4 -2,9 -7,12 -2,1 -6,1 -8,1l-5 0c-3,0 -6,0 -7,-1 -2,-1 -2,-2 -3,-4l-3 0c-2,0 -2,-3 0,-3l12 0c2,0 2,-2 0,-2l-14 0c-2,0 -2,-3 0,-3l9 0c1,0 1,-2 0,-2l-11 0c-2,0 -2,-3 0,-3l4 0c0,-3 0,-10 -3,-11 -2,-1 -3,2 -5,0 -2,-3 0,-5 4,-4z"/>
     <path class="fil2" d="M137 41c2,0 4,1 4,4 0,2 -2,4 -4,4 -3,0 -4,-2 -4,-4 0,-3 1,-4 4,-4z"/>
     <path class="fil2" d="M148 41c3,0 4,1 4,4 0,2 -1,4 -4,4 -2,0 -4,-2 -4,-4 0,-3 2,-4 4,-4z"/>
    </g>
    <g>
     <path class="fil3" d="M62 10c3,0 6,2 9,6l28 -2c2,0 4,1 3,6 0,4 0,9 -3,13 -2,1 -5,3 -8,3l-4 1c-4,1 -6,2 -8,1 -1,0 -2,-1 -3,-3l-3 1c-2,1 -3,-2 -1,-3l12 -3c1,0 1,-3 -1,-2l-14 4c-2,0 -2,-2 -1,-3l9 -2c2,-1 1,-3 0,-3l-11 3c-2,1 -3,-2 -1,-3l5 -1c-2,-3 -3,-10 -7,-10 -1,0 -2,3 -4,2 -3,-2 -1,-6 3,-5z"/>
     <path class="fil2" d="M81 42c2,-1 4,0 5,2 1,3 -1,5 -3,5 -2,1 -4,0 -5,-2 0,-3 1,-5 3,-5z"/>
     <path class="fil2" d="M92 39c3,-1 5,0 5,2 1,3 0,5 -3,5 -2,1 -4,0 -4,-2 -1,-3 0,-5 2,-5z"/>
    </g>
    <g>
     <path class="fil4" d="M190 1c3,2 5,5 5,11l26 11c2,2 2,4 0,7 -3,4 -5,8 -10,10 -2,0 -6,0 -8,-1l-4 -1c-4,-1 -6,-2 -7,-3 -1,-2 -2,-3 -2,-5l-3 0c-1,-1 -1,-3 1,-3l11 3c2,1 3,-2 1,-2l-14 -4c-2,-1 -1,-3 1,-3l9 3c1,0 2,-2 0,-3l-10 -2c-2,-1 -2,-4 1,-3l4 1c0,-3 2,-10 -1,-12 -1,0 -3,2 -4,-1 -2,-3 1,-5 4,-3z"/>
     <path class="fil2" d="M191 39c3,0 4,2 3,5 0,2 -2,3 -5,2 -2,0 -3,-2 -2,-4 0,-3 2,-4 4,-3z"/>
     <path class="fil2" d="M203 42c2,0 3,2 3,5 -1,2 -3,3 -5,2 -2,0 -4,-2 -3,-4 0,-3 3,-4 5,-3z"/>
    </g>
   </g>
  </g>
 </g>
</svg>
