<?xml version="1.0" encoding="UTF-8"?>
<!DOCTYPE svg PUBLIC "-//W3C//DTD SVG 1.1//EN" "http://www.w3.org/Graphics/SVG/1.1/DTD/svg11.dtd">
<!-- Creator: CorelDRAW X8 -->
<svg xmlns="http://www.w3.org/2000/svg" xml:space="preserve" width="280px" height="50px" version="1.1" style="shape-rendering:geometricPrecision; text-rendering:geometricPrecision; image-rendering:optimizeQuality; fill-rule:evenodd; clip-rule:evenodd"
viewBox="0 0 280 50"
 xmlns:xlink="http://www.w3.org/1999/xlink">
 <defs>
  <style type="text/css">
   <![CDATA[
    .fil7 {fill:none}
    .fil0 {fill:white}
    .fil2 {fill:black;fill-opacity:0.501961}
    .fil10 {fill:black;fill-opacity:0.850980}
    .fil8 {fill:black;fill-rule:nonzero;fill-opacity:0.850980}
    .fil9 {fill:url(#id1)}
    .fil5 {fill:url(#id2);fill-opacity:0.501961}
    .fil6 {fill:url(#id3);fill-opacity:0.501961}
    .fil1 {fill:url(#id4);fill-opacity:0.501961}
    .fil3 {fill:url(#id5);fill-opacity:0.501961}
    .fil4 {fill:url(#id6);fill-opacity:0.501961}
   ]]>
  </style>
    <clipPath id="id0">
     <path d="M0 0l280 0 0 50 -280 0 0 -50z"/>
    </clipPath>
  <linearGradient id="id1" gradientUnits="userSpaceOnUse" x1="118.447" y1="1.10906" x2="145.339" y2="35.2619">
   <stop offset="0" style="stop-opacity:1; stop-color:#FFCC00"/>
   <stop offset="0.34902" style="stop-opacity:1; stop-color:#FFE48A"/>
   <stop offset="0.65098" style="stop-opacity:1; stop-color:#DEAB21"/>
   <stop offset="0.819608" style="stop-opacity:1; stop-color:#FFDC69"/>
   <stop offset="1" style="stop-opacity:1; stop-color:#CC9933"/>
  </linearGradient>
  <linearGradient id="id2" gradientUnits="userSpaceOnUse" xlink:href="#id1" x1="172.824" y1="13.4418" x2="199.868" y2="33.5029">
  </linearGradient>
  <linearGradient id="id3" gradientUnits="userSpaceOnUse" xlink:href="#id1" x1="113.406" y1="13.4418" x2="86.3623" y2="33.5029">
  </linearGradient>
  <linearGradient id="id4" gradientUnits="userSpaceOnUse" xlink:href="#id1" x1="128.672" y1="-18.3853" x2="151.054" y2="49.6863">
  </linearGradient>
  <linearGradient id="id5" gradientUnits="userSpaceOnUse" xlink:href="#id1" x1="187.198" y1="0.64071" x2="264.704" y2="28.0733">
  </linearGradient>
  <linearGradient id="id6" gradientUnits="userSpaceOnUse" xlink:href="#id1" x1="99.0322" y1="0.64071" x2="21.5263" y2="28.0733">
  </linearGradient>
 </defs>
 <g id="Capa_x0020_1">
  <metadata id="CorelCorpID_0Corel-Layer"/>
  <g id="_1575132652944">
   <polygon class="fil0" points="0,0 280,0 280,50 0,50 "/>
   <g style="clip-path:url(#id0)">
    <g>
     <g>
      <g>
       <path id="1" class="fil1" d="M130 -13c4,3 6,8 6,16l37 21c3,2 3,6 -1,11 -4,4 -7,11 -16,13 -3,0 -8,-1 -12,-2l-6 -3c-5,-1 -9,-3 -10,-5 -2,-2 -2,-5 -3,-7l-3 -1c-3,-1 -2,-5 1,-4l17 6c2,1 4,-3 1,-4l-20 -7c-3,-1 -1,-5 1,-4l13 5c3,0 4,-3 1,-4l-15 -5c-3,-1 -2,-6 2,-4l6 2c1,-5 5,-15 0,-18 -2,-1 -5,2 -6,-2 -2,-5 3,-7 7,-4z"/>
       <path class="fil2" d="M127 44c3,1 5,4 4,7 -2,4 -5,5 -8,4 -3,-1 -5,-5 -4,-8 1,-3 5,-5 8,-3z"/>
       <path class="fil2" d="M144 50c3,1 4,4 3,7 -1,4 -4,5 -8,4 -3,-1 -4,-5 -3,-8 1,-3 4,-5 8,-3z"/>
      </g>
      <g>
       <path class="fil3" d="M193 3c6,-1 12,1 19,6l45 -19c4,-1 8,1 9,8 1,8 5,15 1,24 -2,3 -7,7 -11,10l-6 4c-6,3 -9,5 -13,5 -2,0 -5,-1 -7,-3l-4 3c-3,1 -6,-3 -3,-4l18 -11c2,-2 0,-6 -3,-4l-21 13c-3,2 -5,-2 -2,-4l13 -8c3,-2 0,-5 -2,-4l-16 10c-3,2 -6,-2 -3,-4l7 -4c-4,-4 -10,-15 -16,-13 -2,1 -2,6 -7,5 -5,-2 -4,-9 2,-10z"/>
       <path class="fil2" d="M242 46c4,-2 8,-1 10,2 2,3 1,7 -2,9 -4,2 -8,2 -10,-2 -2,-3 -1,-7 2,-9z"/>
       <path class="fil2" d="M259 35c4,-2 8,-1 10,2 2,3 1,8 -2,10 -3,2 -8,1 -10,-3 -2,-3 -1,-7 2,-9z"/>
      </g>
      <g>
       <path class="fil4" d="M93 3c-5,-1 -11,1 -19,6l-45 -19c-4,-1 -7,1 -9,8 -1,8 -5,15 -1,24 2,3 7,7 11,10l7 4c5,3 8,5 12,5 3,0 5,-1 7,-3l4 3c3,1 6,-3 3,-4l-17 -11c-3,-2 0,-6 2,-4l21 13c3,2 5,-2 2,-4l-13 -8c-2,-2 0,-5 2,-4l16 10c3,2 6,-2 3,-4l-7 -4c4,-4 10,-15 16,-13 3,1 2,6 7,5 5,-2 4,-9 -2,-10z"/>
       <path class="fil2" d="M44 46c-3,-2 -8,-1 -10,2 -2,3 -1,7 3,9 3,2 7,2 9,-2 2,-3 1,-7 -2,-9z"/>
       <path class="fil2" d="M27 35c-3,-2 -8,-1 -10,2 -2,3 -1,8 2,10 4,2 8,1 10,-3 2,-3 1,-7 -2,-9z"/>
      </g>
     </g>
     <g>
      <path class="fil5" d="M175 15c2,0 4,2 6,5l20 -2c2,0 3,1 3,4 0,3 0,6 -3,9 -1,1 -3,2 -5,3l-3 1c-2,0 -4,1 -5,0 -1,0 -2,-1 -3,-2l-2 1c-1,0 -2,-2 0,-2l8 -2c1,-1 0,-2 -1,-2l-10 3c-1,0 -1,-2 0,-2l6 -2c1,0 1,-2 0,-2l-8 2c-1,1 -2,-1 0,-2l3 0c-1,-2 -2,-7 -5,-7 -1,0 -1,2 -3,1 -2,-2 -1,-4 2,-4z"/>
      <path class="fil2" d="M189 38c1,-1 3,0 3,2 1,1 0,3 -2,3 -1,1 -3,0 -3,-2 0,-1 0,-3 2,-3z"/>
      <path class="fil2" d="M197 35c1,0 3,1 3,3 1,1 0,3 -2,3 -1,0 -3,0 -3,-2 0,-2 0,-3 2,-4z"/>
     </g>
     <g>
      <path class="fil6" d="M111 15c-2,0 -4,2 -6,5l-20 -2c-2,0 -3,1 -3,4 1,3 0,6 3,9 1,1 3,2 5,3l3 1c3,0 4,1 6,0 1,0 2,-1 2,-2l2 1c1,0 2,-2 1,-2l-8 -2c-2,-1 -1,-2 0,-2l10 3c1,0 1,-2 0,-2l-6 -2c-1,0 -1,-2 1,-2l7 2c1,1 2,-1 0,-2l-3 0c1,-2 2,-7 5,-7 1,0 1,2 3,1 2,-2 1,-4 -2,-4z"/>
      <path class="fil2" d="M97 38c-1,-1 -3,0 -3,2 -1,1 0,3 2,3 1,1 3,0 3,-2 1,-1 0,-3 -2,-3z"/>
      <path class="fil2" d="M89 35c-1,0 -3,1 -3,3 -1,1 0,3 2,3 1,0 3,0 3,-2 1,-2 0,-3 -2,-4z"/>
     </g>
    </g>
   </g>
   <polygon class="fil7" points="0,0 280,0 280,50 0,50 "/>
   <g>
    <path class="fil8" d="M57 9l15 0 0 5 -9 0 0 9 7 0 0 5 -7 0 0 16 -6 0 0 -35zm20 0l8 0 5 35 -5 0 -1 -7 0 0 -6 0 -1 7 -6 0 6 -35zm6 23l-2 -17 0 0 -3 17 5 0zm17 12c-3,0 -5,-1 -6,-2 -2,-2 -2,-4 -2,-7l0 -2 5 0 0 3c0,2 1,3 3,3 1,0 1,0 2,-1 0,0 1,-1 1,-2 0,-2 -1,-3 -1,-4 -1,-1 -2,-3 -4,-4 -2,-2 -4,-4 -5,-6 -1,-1 -1,-3 -1,-5 0,-3 0,-5 2,-7 1,-1 3,-2 6,-2 3,0 5,1 6,2 1,2 2,4 2,7l0 1 -5 0 0 -2c0,-1 0,-2 -1,-2 0,-1 -1,-1 -2,-1 -2,0 -3,1 -3,3 0,2 1,3 1,4 1,1 2,2 4,4 2,2 4,4 5,5 1,2 1,4 1,6 0,3 -1,5 -2,7 -1,1 -4,2 -6,2zm15 -30l-5 0 0 -5 17 0 0 5 -6 0 0 30 -6 0 0 -30z"/>
    <g>
     <path class="fil8" d="M151 9l8 0c3,0 5,0 6,1 1,2 2,4 2,7l0 1c0,2 0,3 -1,4 0,2 -1,2 -3,3l0 0c3,1 5,3 5,7l0 3c0,3 -1,5 -3,7 -1,1 -3,2 -6,2l-8 0 0 -35zm7 14c1,0 2,0 3,-1 0,-1 0,-2 0,-3l0 -2c0,-1 0,-2 0,-3 -1,0 -1,0 -2,0l-3 0 0 9 2 0zm1 16c1,0 2,-1 2,-1 1,-1 1,-2 1,-3l0 -3c0,-2 0,-3 -1,-3 0,-1 -1,-1 -3,-1l-2 0 0 11 3 0zm20 5c-3,0 -5,-1 -7,-2 -1,-2 -2,-4 -2,-7l0 -26 6 0 0 27c0,1 0,2 1,2 0,1 1,1 2,1 1,0 1,0 2,-1 0,0 0,-1 0,-2l0 -27 6 0 0 26c0,3 -1,5 -2,7 -2,1 -4,2 -6,2zm17 -15l-7 -20 6 0 4 12 0 0 3 -12 6 0 -7 20 0 15 -5 0 0 -15z"/>
     <path class="fil8" d="M204 33l3 0 1 7 0 0 0 -7 2 0 0 11 -2 0 -2 -8 0 0 0 8 -2 0 0 -11zm7 0l2 0 0 11 -2 0 0 -11zm6 11c-1,0 -1,0 -2,-1 0,0 -1,-1 -1,-2l0 -5c0,-1 1,-2 1,-2 1,-1 1,-1 2,-1 1,0 2,0 2,1 1,0 1,1 1,2l0 1 -2 0 0 -2c0,0 0,-1 -1,-1 0,0 -1,1 -1,1l0 7c0,0 1,1 1,1 1,0 1,-1 1,-1l0 -2 2 0 0 1c0,1 0,2 -1,2 0,1 -1,1 -2,1zm4 -2l2 0 0 2 -2 0 0 -2z"/>
    </g>
    <path class="fil0" d="M121 9c0,0 -1,0 -1,0 -1,1 -3,1 -4,-1l0 0 0 0c-1,-1 -1,-2 -1,-3 1,-1 2,-2 3,-2 1,-1 2,-1 3,0 3,1 6,5 7,8l25 4 0 0c1,0 2,1 2,1 2,2 1,5 0,7 0,2 -1,4 -2,6 -1,2 -2,4 -4,5l-1 0 0 0c-2,1 -5,2 -7,2l-5 0c-1,0 -2,0 -3,-1 -2,0 -3,0 -4,0 0,-1 0,-1 0,-1l0 0 0 0c-1,-1 -2,-2 -3,-3l-2 0c0,0 -1,0 -2,-1 0,0 0,0 0,-1 0,0 0,-1 0,-2 1,0 2,-1 2,-1l-2 0c-1,0 -2,0 -2,-1 0,-1 0,-2 0,-3 0,0 1,0 1,0l0 0c-2,0 -3,-1 -3,-3 0,-1 1,-2 3,-2l2 0c0,-1 0,-1 0,-1 0,-1 0,-2 0,-3 0,-1 -1,-4 -2,-4z"/>
    <path class="fil9" d="M121 4c2,1 4,3 6,8l26 4c2,1 3,3 1,6 -1,4 -2,8 -6,11 -2,1 -5,1 -7,1l-5 0c-3,0 -5,0 -6,-1 -2,-1 -2,-2 -3,-3l-3 0c-1,0 -1,-3 0,-3l11 0c2,0 2,-2 0,-2l-13 0c-2,0 -1,-2 0,-2l8 0c2,0 2,-3 0,-3l-9 0c-2,0 -3,-2 0,-2l4 0c-1,-3 -1,-10 -4,-10 -1,-1 -2,2 -4,0 -2,-3 0,-5 4,-4z"/>
    <path class="fil10" d="M130 37c2,0 4,1 4,3 0,2 -2,4 -4,4 -2,0 -3,-2 -3,-4 0,-2 1,-3 3,-3z"/>
    <path class="fil10" d="M141 37c2,0 4,1 4,3 0,2 -2,4 -4,4 -2,0 -4,-2 -4,-4 0,-2 2,-3 4,-3z"/>
   </g>
  </g>
 </g>
</svg>
