<?xml version="1.0" encoding="UTF-8"?>
<!DOCTYPE svg PUBLIC "-//W3C//DTD SVG 1.1//EN" "http://www.w3.org/Graphics/SVG/1.1/DTD/svg11.dtd">
<!-- Creator: CorelDRAW X8 -->
<svg xmlns="http://www.w3.org/2000/svg" xml:space="preserve" width="1360px" height="768px" version="1.1" style="shape-rendering:geometricPrecision; text-rendering:geometricPrecision; image-rendering:optimizeQuality; fill-rule:evenodd; clip-rule:evenodd"
viewBox="0 0 1360 768"
 xmlns:xlink="http://www.w3.org/1999/xlink">
 <defs>
  <style type="text/css">
   <![CDATA[
    .str0 {stroke:#6699FF;stroke-width:0.900001}
    .fil0 {fill:none}
    .fil11 {fill:#4D4D4D}
    .fil13 {fill:#4D4D4D}
    .fil10 {fill:#DEDDE3}
    .fil1 {fill:#E6E6E6}
    .fil12 {fill:#F7D7AA}
    .fil5 {fill:#F7F7F7}
    .fil2 {fill:white}
    .fil4 {fill:white}
    .fil9 {fill:#33CC99;fill-opacity:0.349020}
    .fil3 {fill:#6699FF;fill-opacity:0.501961}
    .fil7 {fill:#CC9933;fill-opacity:0.501961}
    .fil8 {fill:white;fill-opacity:0.501961}
    .fil6 {fill:white;fill-opacity:0.501961}
   ]]>
  </style>
    <clipPath id="id0">
     <path d="M378 129l186 0 0 118 -186 0 0 -118z"/>
    </clipPath>
    <clipPath id="id1">
     <path d="M110 129l186 0 0 118 -186 0 0 -118z"/>
    </clipPath>
    <clipPath id="id2">
     <path d="M646 129l186 0 0 118 -186 0 0 -118z"/>
    </clipPath>
    <clipPath id="id3">
     <path d="M110 304l186 0 0 118 -186 0 0 -118z"/>
    </clipPath>
    <clipPath id="id4">
     <path d="M378 304l186 0 0 118 -186 0 0 -118z"/>
    </clipPath>
    <clipPath id="id5">
     <path d="M646 304l186 0 0 118 -186 0 0 -118z"/>
    </clipPath>
    <clipPath id="id6">
     <path d="M378 477l186 0 0 119 -186 0 0 -119z"/>
    </clipPath>
    <clipPath id="id7">
     <path d="M646 477l186 0 0 119 -186 0 0 -119z"/>
    </clipPath>
 </defs>
 <g id="Capa_x0020_1">
  <metadata id="CorelCorpID_0Corel-Layer"/>
  <rect class="fil0" width="1360" height="768"/>
  <g id="_2283108167072">
   <ellipse class="fil1" cx="249" cy="719" rx="105" ry="13"/>
   <rect class="fil2 str0" x="77" y="27" width="1167" height="611"/>
   <polygon class="fil3" points="77,27 1244,27 1244,58 77,58 "/>
   <g>
    <circle class="fil4" cx="100" cy="43" r="8"/>
    <circle class="fil4" cx="121" cy="43" r="8"/>
    <circle class="fil4" cx="143" cy="43" r="8"/>
   </g>
   <polygon class="fil5" points="378,129 564,129 564,247 378,247 "/>
   <g style="clip-path:url(#id0)">
    <g>
     <g>
      <path id="1" class="fil6" d="M458 185c1,-5 2,-10 0,-14 -1,-4 -4,-4 -8,-5 -13,-4 -37,-6 -49,2 -6,4 -6,14 -5,23 2,10 3,15 10,18 7,3 16,5 24,5 19,-1 25,-12 28,-29z"/>
      <path class="fil6" d="M482 181c1,6 4,16 7,21 8,14 29,13 43,9 9,-3 10,-7 12,-16 2,-8 3,-19 -1,-25 -7,-9 -36,-8 -48,-5 -10,2 -14,3 -13,16z"/>
      <path class="fil3" d="M458 185c-3,17 -9,28 -28,29 -8,0 -17,-2 -24,-5 -7,-3 -8,-8 -10,-18 -1,-9 -1,-19 5,-23 12,-8 36,-6 49,-2 4,1 7,1 8,5 2,4 1,9 0,14zm24 -4c-1,-13 3,-14 13,-16 12,-3 41,-4 48,5 4,6 3,17 1,25 -2,9 -3,13 -12,16 -14,4 -35,5 -43,-9 -3,-5 -6,-15 -7,-21zm-95 -16c0,3 -1,11 1,12 0,0 0,0 0,0 5,4 3,1 5,13 1,6 2,11 4,16 4,7 18,10 29,10 20,0 28,-6 36,-23 6,-15 2,-9 3,-15 4,-2 8,-2 11,0 1,4 -2,2 4,15 7,16 14,23 35,23 11,0 24,-3 29,-10 3,-5 5,-16 6,-23 0,-5 0,-5 4,-6l1 -12c-7,-3 -33,-6 -42,-6 -17,0 -30,6 -42,6 -8,0 -14,-2 -21,-3 -6,-1 -14,-3 -21,-3 -10,0 -35,3 -42,6z"/>
      <g>
       <path class="fil6" d="M551 166c1,0 2,1 2,2 0,0 -1,1 -2,1 0,0 -1,-1 -1,-1 0,-1 1,-2 1,-2z"/>
       <path class="fil6" d="M551 172c1,0 2,0 2,1 0,1 -1,2 -2,2 0,0 -1,-1 -1,-2 0,-1 1,-1 1,-1z"/>
      </g>
      <g>
       <path class="fil6" d="M390 166c1,0 1,1 1,2 0,0 0,1 -1,1 -1,0 -1,-1 -1,-1 0,-1 0,-2 1,-2z"/>
       <path class="fil6" d="M390 172c1,0 1,0 1,1 0,1 0,2 -1,2 -1,0 -1,-1 -1,-2 0,-1 0,-1 1,-1z"/>
      </g>
     </g>
    </g>
   </g>
   <polygon class="fil0" points="378,129 564,129 564,247 378,247 "/>
   <polygon class="fil5" points="110,129 296,129 296,247 110,247 "/>
   <g style="clip-path:url(#id1)">
    <g>
     <g>
      <path id="1" class="fil7" d="M119 181l0 11c1,2 1,3 1,5 6,4 32,7 40,8 8,-12 27,-11 40,-9 4,0 11,2 15,2 0,-1 2,-3 2,-5 3,-5 5,-12 5,-18l-3 -1c-1,3 -3,9 -8,7 0,-4 3,-6 4,-10 -2,-1 -4,-3 -6,-4 -1,2 -5,9 -8,7 -3,-3 2,-7 4,-10 -2,-1 -4,-3 -6,-4l-5 4c-2,3 -2,4 -6,2 0,-3 2,-5 5,-8 1,-1 1,0 1,-2 -1,-1 -2,-2 -3,-2 -5,2 -6,5 -14,8 -14,8 -31,8 -46,3 -3,-1 -6,-3 -8,-3 -1,5 -2,8 -3,14 0,3 0,4 -1,5z"/>
      <path class="fil7" d="M222 184l-2 7c-1,2 -2,4 -4,6 -2,3 -2,2 -6,1 -12,-2 -41,-6 -48,7 1,0 14,2 17,2 20,4 27,11 50,10 19,-1 36,-8 51,-18 2,-1 5,-3 6,-4 0,-7 -6,-10 -13,-11 -8,-2 -19,-1 -28,-2 0,0 -7,-1 -12,-2 -4,-1 -7,-3 -10,-4l-1 8z"/>
      <path class="fil7" d="M119 203l0 9 1 4c6,2 37,4 41,2 2,-9 4,-8 13,-6 21,3 30,11 52,10 11,0 25,-4 34,-8 9,-3 17,-7 24,-12 1,-1 2,-2 3,-3l0 -1c0,-1 0,-1 -1,-2 -5,3 -9,6 -16,10 -6,3 -12,6 -18,8 -15,4 -31,5 -46,2 -7,-2 -13,-5 -20,-6 -16,-4 -31,-4 -46,-6 -4,-1 -7,-2 -11,-3 -1,0 -8,-3 -9,-3l-1 5z"/>
      <path class="fil7" d="M126 161c8,5 24,8 35,6 9,-1 18,-6 25,-11 0,-1 2,-2 3,-3 -2,1 -9,4 -13,6 -5,2 -10,3 -15,4 -16,3 -22,0 -35,-2z"/>
      <path class="fil7" d="M196 156l-5 5c0,1 -2,2 -2,3 0,2 2,2 3,2 0,-1 3,-4 5,-5 3,-3 2,-6 -1,-5z"/>
      <path class="fil7" d="M217 170c-1,1 -5,8 -5,9 0,1 1,2 2,2 1,-1 3,-5 4,-6 0,-1 1,-3 1,-3 1,-2 0,-3 -2,-2z"/>
      <path class="fil7" d="M209 163c-3,0 -3,1 -5,4 -2,2 -5,5 -2,6 1,1 3,-2 4,-4 2,-2 4,-3 3,-6z"/>
      <path class="fil7" d="M193 189c-1,0 -5,0 -4,2 1,1 5,1 4,-2z"/>
     </g>
    </g>
   </g>
   <polygon class="fil0" points="110,129 296,129 296,247 110,247 "/>
   <polygon class="fil5" points="646,129 832,129 832,247 646,247 "/>
   <g style="clip-path:url(#id2)">
    <g>
     <g>
      <path id="1" class="fil7" d="M766 211c5,-17 25,-54 19,-68 -1,-3 -1,-3 -4,-3 -11,-2 -26,-2 -37,2 -7,3 -12,6 -17,10 -8,8 -17,24 -21,34 13,1 20,5 32,11 7,3 14,7 21,11 1,1 5,3 7,3z"/>
      <path class="fil7" d="M660 204c1,1 4,2 7,5 2,1 4,3 6,5 4,4 8,7 12,10 8,6 17,13 29,16 18,4 37,-2 53,-10 2,-1 14,-7 15,-9 -7,-1 -23,-10 -29,-13 -9,-5 -18,-10 -28,-14 -5,-2 -11,-4 -17,-4 -7,-1 -9,1 -17,3 -3,2 -29,10 -31,11z"/>
      <path class="fil7" d="M800 147c-3,-1 -8,-4 -11,-5 1,8 1,13 -1,20 -4,15 -11,29 -16,42 -1,3 -3,7 -3,9 3,2 20,7 25,9 9,3 18,5 26,8 2,-4 2,-10 3,-14 4,-27 2,-54 -23,-69z"/>
      <path class="fil7" d="M656 207c-2,2 -2,6 -1,9 1,3 3,5 5,7 5,3 13,3 19,1l-11 -10c-2,-2 -8,-7 -12,-7z"/>
      <path class="fil7" d="M780 136l9 2c0,-1 -2,-3 -4,-4 -2,0 -4,1 -5,2z"/>
     </g>
    </g>
   </g>
   <polygon class="fil0" points="646,129 832,129 832,247 646,247 "/>
   <polygon class="fil5" points="110,304 296,304 296,422 110,422 "/>
   <g style="clip-path:url(#id3)">
    <g>
     <g>
      <path id="1" class="fil8" d="M164 383c0,0 0,-1 -1,-1 0,-1 0,-2 -1,-3 -4,-8 -5,-15 -11,-24 -3,-4 -5,-4 -8,-7 1,-1 4,-6 5,-7 9,7 12,17 17,27 1,4 3,7 5,10 -2,2 -4,4 -5,6l-1 -1z"/>
      <g>
       <path class="fil3" d="M165 384c1,-2 3,-4 5,-6 -2,-3 -4,-6 -5,-10 -5,-10 -8,-20 -17,-27 -1,1 -4,6 -5,7 3,3 5,3 8,7 6,9 7,16 11,24 1,1 1,2 1,3 1,0 1,1 1,1l1 1zm36 28c-14,-1 -23,-5 -31,-12 -14,-12 -13,-28 -23,-42 -5,-5 -21,-14 -19,-24 1,-1 3,-4 5,-6 1,-2 2,-5 4,-7 1,1 1,3 4,5 2,2 5,2 8,2 14,0 14,-3 19,19 2,8 5,24 11,28 4,2 1,0 4,6 5,11 18,19 18,31z"/>
       <path class="fil3" d="M221 413c0,9 -22,9 -29,8 -11,-2 -20,-6 -28,-11 -15,-8 -29,-17 -42,-26 -2,-2 -4,-3 -6,-4 2,0 3,1 5,2 2,1 3,2 5,3l19 9c2,1 8,4 10,5 -1,-3 -3,-3 -6,-5l-21 -12c3,1 9,3 12,5 4,1 8,4 12,5 -1,-4 -3,-12 -5,-16 -2,-5 -6,-8 -10,-11 -5,-3 -9,-5 -12,-9 -3,-4 -5,-12 0,-16 1,7 4,10 8,14 4,3 8,6 11,11 6,8 9,20 15,30 5,7 15,14 25,18 9,4 24,5 34,1 1,0 2,-1 3,-1z"/>
       <path class="fil3" d="M222 409c-6,1 -12,3 -18,3 0,-16 -14,-19 -20,-36 3,-2 12,-3 15,-1 1,1 2,3 4,6 3,5 7,8 12,12 5,4 8,8 7,16z"/>
       <path class="fil3" d="M162 319c-1,1 -3,2 -5,2 -1,-3 -3,-7 -5,-9 -3,-2 -6,2 -7,5 -2,9 15,6 18,4 7,-4 6,-13 17,-10 3,1 4,3 5,8 0,1 2,10 2,11 -5,-3 -15,0 -20,2 -3,-9 -11,-7 -17,-6 -8,0 -13,-4 -11,-12 3,-10 12,-15 19,-2 2,4 2,4 4,7z"/>
       <path class="fil3" d="M197 363c-4,-1 -7,-1 -12,0 -2,0 -9,2 -10,2l-1 -4c4,-3 16,-5 20,-3 3,1 3,2 3,5z"/>
       <path class="fil3" d="M194 355c-1,0 -3,-1 -5,-1 -2,0 -4,0 -6,0 -4,1 -7,3 -10,3l-1 -5c4,-2 15,-5 20,-3 2,1 3,3 2,6z"/>
       <path class="fil3" d="M192 347c-1,0 -4,-2 -11,-1 -4,1 -6,2 -10,3l-1 -5c3,-3 25,-7 22,3z"/>
       <path class="fil3" d="M190 338c-4,-1 -7,-1 -11,-1 -4,1 -7,2 -10,3l-1 -5c2,-2 9,-3 13,-3 5,-1 9,0 9,6z"/>
       <path class="fil3" d="M200 372c-3,-1 -6,-3 -13,-1 -4,2 -7,5 -10,-2 5,-1 7,-3 13,-3 6,-1 10,-1 10,6z"/>
      </g>
     </g>
    </g>
   </g>
   <polygon class="fil0" points="110,304 296,304 296,422 110,422 "/>
   <polygon class="fil5" points="378,304 564,304 564,422 378,422 "/>
   <g style="clip-path:url(#id4)">
    <g>
     <g>
      <path id="1" class="fil9" d="M455 307c0,0 0,0 0,0 0,-1 2,-2 3,-2 0,0 1,0 1,0 0,0 1,0 1,1 0,-1 0,-1 1,0l1 0c0,0 1,0 2,0 0,1 1,1 2,1 2,0 4,1 6,0 2,0 4,0 7,0 1,0 3,-1 4,-1 0,0 1,0 1,0 0,0 0,0 0,0 0,0 1,-1 2,-1 0,1 1,1 2,1 0,1 0,1 1,2 0,0 0,0 0,0 0,0 0,0 0,0 1,0 3,0 4,1 2,0 3,1 5,2 2,0 3,1 5,2 1,0 2,0 3,1 4,2 8,5 8,9 0,0 0,1 0,1 0,0 0,1 0,1 1,1 1,3 1,5 1,1 1,2 1,3 0,1 0,1 1,1 0,1 0,2 1,4 0,0 0,1 0,2 0,1 0,1 0,2 1,2 2,5 3,8 0,1 1,3 1,5 1,1 1,2 1,3 0,1 0,1 0,1 0,0 1,0 1,1 0,1 0,2 0,2 -1,1 -2,2 -2,2 -2,0 -3,1 -4,1 -2,1 -5,2 -7,2 -1,0 -1,0 -1,0 0,0 0,0 0,0 -1,1 -2,2 -3,2 -1,1 -3,0 -5,-1 0,1 0,1 0,2 0,0 0,0 0,0 1,0 1,1 1,1 0,3 1,7 0,10 0,2 -1,4 -1,6 0,0 0,0 0,0 0,0 1,1 1,1 0,2 0,3 0,5 0,2 -1,3 -2,5 0,0 0,1 0,1 0,0 0,0 0,1 1,3 2,8 1,11 0,1 0,2 -1,2 -3,0 -6,1 -9,2 -2,1 -5,2 -7,3 -3,1 -6,1 -8,2 -8,1 -14,1 -22,-1 -2,-1 -4,-1 -7,-2 -2,0 -3,0 -5,0 -1,0 -3,0 -4,-1 -1,-1 -1,-2 -1,-4 0,-1 0,-2 0,-3 0,-2 0,-4 0,-6 0,0 -1,-1 -1,-1 0,-1 0,-3 0,-4 0,-1 0,-1 0,-2 0,0 0,-1 1,-1 0,-1 0,-1 -1,-2 0,-2 -1,-4 -1,-6 0,-1 1,-2 1,-3 0,-1 0,-1 0,-2 0,-4 -1,-9 2,-12 0,0 0,-1 0,-1 0,0 0,0 0,-1 0,1 0,1 0,1 -2,-1 -3,-1 -3,-2 -1,0 -1,0 -2,0 -1,0 -3,0 -5,0 -4,-1 -7,-2 -10,-3 0,0 0,0 -1,-1 -1,0 0,-1 0,-2 0,-1 0,-1 0,-1 0,0 0,0 0,-1 0,0 0,0 0,-1 0,0 0,0 0,0 0,0 0,-1 0,-1 0,-1 1,-2 1,-3 0,-2 1,-4 1,-5 1,-3 2,-5 3,-8 0,-1 0,-2 0,-3 0,-2 1,-4 2,-6 0,0 0,-1 0,-1 0,-1 0,-2 1,-2 0,0 0,0 0,-1l2 -3c0,0 0,0 0,0 0,0 0,0 0,0 0,0 0,-1 1,-1 0,0 0,0 0,0 -1,-2 0,-5 1,-6 2,-4 3,-5 7,-6 3,0 6,-1 9,-2 1,0 2,-1 3,-1 1,-1 2,-1 3,-1 1,0 1,-1 2,-1 0,0 0,0 1,0zm-22 19c0,1 0,1 0,2 0,0 0,0 0,0 0,0 0,0 0,1 1,0 1,1 2,2 0,0 0,-1 0,-1 0,-1 1,-3 0,-5 0,0 -1,-1 -1,-1l-1 2c0,0 0,0 0,0z"/>
      <path class="fil9" d="M441 402c2,1 6,3 9,4 3,1 6,2 9,3 1,1 1,0 1,1 -1,0 0,0 -1,0 -1,0 -1,0 -1,0 -4,-1 -14,-6 -18,-8 -1,0 0,1 -1,-1l2 1zm20 -95l-1 0 1 1c1,3 6,4 11,4 6,0 9,0 11,-4 -4,0 -7,1 -11,1 -7,0 -8,-1 -11,-2zm16 6c1,0 1,1 1,-1l-1 1c-2,0 -4,0 -6,0 -2,0 -4,0 -6,0 4,3 8,2 12,0zm-3 90c0,1 0,1 -1,1 -3,-1 -13,-11 -15,-14 -3,-3 -12,-14 -12,-18 -1,-1 -1,0 -1,-1 2,0 0,-1 1,0 1,1 5,8 6,9 2,4 4,6 6,9 3,3 8,8 12,11 1,1 3,2 4,3zm39 -41c-1,0 -2,0 -2,0 4,-1 8,-2 11,-4 -1,-3 -4,-12 -5,-16 -1,-2 -1,-2 -1,-4 0,-3 -1,-2 -1,-4 -1,-2 -1,-6 -2,-9 -1,1 0,0 -1,1 -1,1 -1,2 -1,3 0,2 0,3 0,5l-1 31c3,0 5,-1 8,-1 5,-2 5,-2 4,-4 -2,0 -7,2 -9,2zm-4 4c1,-1 1,1 0,-1 -2,-1 0,0 -1,0 -1,1 -3,1 -5,2 1,1 3,1 4,1 1,-1 1,-2 2,-2zm-84 -5c-1,1 0,1 -1,1l-3 -1c-1,0 0,0 -2,0 0,2 0,1 0,1 6,4 10,3 15,3 3,0 2,2 5,2 -1,-6 -5,-10 -4,-34 -2,-3 -5,-4 -6,-7 0,0 0,0 0,0l-2 3c-1,2 0,2 -1,4 -1,2 -1,6 -2,8 -1,4 -4,13 -4,17 0,0 0,-1 -1,0 0,2 0,0 0,1l1 1 5 1zm76 19c2,-1 1,-6 1,-9 -2,0 0,0 -1,1 -1,4 -3,10 -5,14 -1,3 -4,12 -7,13 1,-1 3,-6 4,-7 2,-7 6,-18 8,-25 3,-9 0,-32 4,-40 1,1 0,3 0,5 1,0 1,-1 2,-2 1,-1 1,-1 1,-3 -1,0 -2,0 -2,-1l2 0 1 2c6,-4 3,-10 -3,-13 -3,-1 -15,-5 -17,-6 -1,2 -2,3 -3,5 -4,4 -9,7 -15,7 -6,-1 -10,-4 -14,-8 -1,-1 -2,-3 -3,-4 -2,0 -6,2 -8,2 -3,1 -5,2 -8,3 -4,1 -5,1 -7,4 -1,3 -2,6 1,7l0 -3c2,0 4,2 4,3 1,1 1,4 1,6 -1,4 -1,8 -1,12 1,8 2,16 4,22 3,11 6,19 11,27l5 8c-2,-1 -7,-10 -9,-13 -4,-7 -6,-14 -7,-16 -2,3 -2,7 -1,10 0,4 -3,4 0,11 1,3 0,4 -1,6 0,1 1,3 1,5 0,16 -1,12 9,13 3,0 5,1 8,2 22,5 31,-5 45,-7 0,-3 0,-8 -1,-11 -2,1 -5,5 -7,7 0,-2 11,-10 9,-19 -3,2 -8,16 -12,18 1,-2 6,-9 7,-12 2,-4 5,-9 4,-14zm4 -30l-1 -1c1,-4 4,-12 4,-18 -4,2 -4,6 -4,10 -1,2 -1,12 0,14l-1 11c4,-1 6,-2 7,-5l0 -31c-2,1 -3,18 -5,20zm-73 -22c0,1 2,2 3,2 1,-3 1,-5 -1,-6 -1,1 -1,1 -1,2 -1,1 0,0 -1,1 -2,3 0,-2 0,1zm56 -19c-1,-2 -1,-2 -3,-2 0,1 -1,2 -2,3 -2,1 -2,2 -3,3 -13,9 -19,-4 -22,-7 -3,1 -3,2 -1,4 1,2 2,3 3,5 11,10 26,2 28,-6z"/>
     </g>
    </g>
   </g>
   <polygon class="fil0" points="378,304 564,304 564,422 378,422 "/>
   <polygon class="fil5" points="646,304 832,304 832,422 646,422 "/>
   <g style="clip-path:url(#id5)">
    <g>
     <g>
      <g>
       <path id="1" class="fil3" d="M714 409c3,1 6,3 10,3 5,1 9,1 14,1 -2,1 -11,0 -13,0 -4,-1 -9,-2 -11,-4zm-1 -10c3,1 6,3 9,4 10,6 17,6 28,8 1,0 1,0 1,0 -8,1 -22,-3 -30,-7 -1,-1 -2,-2 -3,-3 -1,0 -2,0 -3,-1l-1 -1c0,0 0,0 0,0l-1 0zm31 -5c0,1 3,4 4,5l4 5c2,1 3,2 5,4 1,0 5,2 6,3 -4,0 -14,-9 -15,-11l-3 -3c0,0 0,-1 0,-1 -1,-1 -1,-1 -1,-2zm-1 -1c0,0 0,0 0,1 0,0 0,0 1,0 -1,0 0,1 -1,0 0,0 0,-1 0,-1zm-1 -1l1 1c-1,0 -1,0 -1,0 0,0 0,-1 0,-1zm4 0c1,0 4,4 5,5 0,1 1,1 2,2 1,2 6,6 6,7 -1,0 -1,-1 -1,-1 -1,-1 -2,-1 -2,-2 -2,-1 -2,-2 -4,-3l-2 -3c0,-1 0,-1 -1,-1 -1,-1 -2,-3 -3,-4zm-4 0c-1,0 0,1 -1,-1 0,0 0,0 1,1zm3 -2c0,0 0,0 0,0 0,0 1,1 1,1 0,0 0,0 0,1 0,0 0,0 0,0 0,0 -1,-1 -1,-1 0,-1 0,0 0,-1zm-5 -1c0,1 0,1 0,1 0,0 0,0 0,0 0,0 0,-1 0,-1zm5 1l0 0zm-2 -3l1 1c-1,0 -1,0 -1,0 0,0 0,-1 0,-1zm-22 -1c3,1 6,3 9,5 2,0 3,1 5,1 1,1 5,1 5,2 -2,1 -9,-2 -10,-3l-8 -4c-1,-1 0,0 -1,-1zm11 -28c1,-1 7,0 9,-1 1,0 8,-1 9,0 0,0 0,0 0,0 0,0 -16,2 -18,1zm1 -2c4,-1 19,-2 20,-1 0,0 0,0 -1,0l-2 0c0,0 -1,0 -2,0 -5,1 -11,1 -16,1l1 0zm5 -38c2,0 4,0 6,0 2,-1 3,-1 5,-2 -1,1 0,1 -1,1 0,0 0,0 0,0 -3,1 -8,2 -10,1zm17 -12c-2,6 -9,9 -16,9 -7,0 -10,-3 -14,-8 0,0 -1,-1 -1,-1 -1,0 -1,0 -2,1 1,2 2,3 3,5 2,1 2,1 5,3 -3,0 -7,-5 -8,-8 -3,1 -8,2 -11,2 -6,1 -7,1 -9,4 -4,5 -4,9 -6,15 0,1 -1,3 -1,5 1,0 4,1 6,2 2,1 4,3 6,4 1,-6 -1,-11 -4,-15 2,1 3,6 4,8 0,-5 -2,-10 -4,-14 2,2 4,7 5,11 0,-2 -1,-6 -2,-8 -1,-3 -2,-4 -3,-6 1,1 1,0 1,1 0,0 1,1 1,1 2,2 2,5 3,7 2,11 -2,18 2,24 3,4 7,3 10,4 -1,1 0,0 -1,1 -2,0 -4,-1 -6,-2 0,2 1,4 1,6 1,6 1,16 1,21 -1,5 -3,7 0,9 0,0 1,1 2,1 4,3 5,3 9,5 0,1 0,1 -2,0 -4,-1 -7,-4 -11,-6 0,2 -1,4 -2,7 -1,3 -2,3 -2,5 -1,3 3,6 5,7 1,1 2,1 2,2 -4,-1 -5,-4 -8,-5 0,1 0,1 -1,2 -1,3 3,4 5,6 -2,-1 -3,-2 -4,-2 0,5 0,7 3,7 7,0 12,3 18,3 9,1 22,0 31,0 3,-1 6,-1 9,-2 2,-2 2,-5 2,-8 -1,0 -2,1 -4,2 1,-2 4,-2 5,-4 0,-2 -1,-3 -2,-4 0,0 -1,1 -2,1 -1,2 -3,3 -5,4 0,-1 1,-2 2,-2 7,-5 5,-6 3,-10 -1,-2 -2,-7 -3,-9 -3,2 -7,5 -11,6 0,0 -1,0 -1,0 -1,0 0,0 -1,0 4,-2 6,-2 10,-5 5,-4 3,-2 2,-10 -1,-8 0,-19 2,-27 -1,1 -6,3 -7,1 2,-1 6,1 9,-4 2,-3 3,-7 2,-11 -1,-6 0,-16 5,-21 0,-1 0,0 1,-1 -4,5 -5,10 -5,16 1,-1 2,-3 2,-4 1,-1 1,-2 1,-3 0,-1 1,-2 1,-2 -1,6 -4,10 -4,11 0,0 0,0 0,0 0,0 1,0 1,0 5,-7 4,-12 5,-15 0,5 -1,8 -3,11 -3,7 -3,3 -3,10 4,-1 8,-5 13,-6 0,-2 -1,-4 -2,-6 0,-1 0,-3 -1,-5 -1,-3 -2,-6 -4,-9 -2,-3 -4,-3 -9,-4 -4,0 -7,-1 -11,-2 -1,3 -4,6 -5,7 2,-2 4,-3 5,-7l-2 -1z"/>
       <path class="fil3" d="M739 310c-7,0 -7,-1 -13,-3 1,1 3,4 5,5 6,3 19,4 23,-6 -7,3 -7,4 -15,4z"/>
      </g>
      <g>
       <path class="fil3" d="M722 307c1,-1 1,-1 2,-1 0,0 1,1 1,1 4,5 7,8 14,8 7,0 14,-3 16,-9l2 1c-1,4 -3,5 -5,7 1,-1 4,-4 5,-7 4,1 7,2 11,2 5,1 7,1 9,4 2,3 3,6 4,9 1,2 1,4 1,5 1,2 2,4 2,6 -5,1 -9,5 -13,6 0,-7 0,-3 3,-10 2,-3 3,-6 3,-11 -1,3 0,8 -5,15 0,0 -1,0 -1,0 0,0 0,0 0,0 0,-1 3,-5 4,-11 0,0 -1,1 -1,2 0,1 0,2 -1,3 0,1 -1,3 -2,4 0,-6 1,-11 5,-16 -1,1 -1,0 -1,1 -5,5 -6,15 -5,21 1,4 0,8 -2,11 -3,5 -7,3 -9,4 1,2 6,0 7,-1 -2,8 -3,19 -2,27 1,8 3,6 -2,10 -4,3 -6,3 -10,5 1,0 0,0 1,0 0,0 1,0 1,0 4,-1 8,-4 11,-6 1,2 2,7 3,9 2,4 4,5 -3,10 -1,0 -2,1 -2,2 2,-1 4,-2 5,-4 1,0 2,-1 2,-1 1,1 2,2 2,4 -1,2 -4,2 -5,4 2,-1 3,-2 4,-2 0,3 0,6 -2,8 -3,1 -6,1 -9,2 -9,0 -22,1 -31,0 -6,0 -11,-3 -18,-3 -3,0 -3,-2 -3,-7 1,0 2,1 4,2 -2,-2 -6,-3 -5,-6 1,-1 1,-1 1,-2 3,1 4,4 8,5 0,-1 -1,-1 -2,-2 -2,-1 -6,-4 -5,-7 0,-2 1,-2 2,-5 1,-3 2,-5 2,-7 4,2 7,5 11,6 2,1 2,1 2,0 -4,-2 -5,-2 -9,-5 -1,0 -2,-1 -2,-1 -3,-2 -1,-4 0,-9 0,-5 0,-15 -1,-21 0,-2 -1,-4 -1,-6 2,1 4,2 6,2 1,-1 0,0 1,-1 -3,-1 -7,0 -10,-4 -4,-6 0,-13 -2,-24 -1,-2 -1,-5 -3,-7 0,0 -1,-1 -1,-1 0,-1 0,0 -1,-1 1,2 2,3 3,6 1,2 2,6 2,8 -1,-4 -3,-9 -5,-11 2,4 4,9 4,14 -1,-2 -2,-7 -4,-8 3,4 5,9 4,15 -2,-1 -4,-3 -6,-4 -2,-1 -5,-2 -6,-2 0,-2 1,-4 1,-5 2,-6 2,-10 6,-15 2,-3 3,-3 9,-4 3,0 8,-1 11,-2 1,3 5,8 8,8 -3,-2 -3,-2 -5,-3 -1,-2 -2,-3 -3,-5zm17 3c8,0 8,-1 15,-4 -4,10 -17,9 -23,6 -2,-1 -4,-4 -5,-5 6,2 6,3 13,3zm-15 -5c0,0 -1,1 -2,1 -2,2 -7,2 -10,2 -2,0 -4,1 -6,1 -7,1 -9,14 -11,19 0,1 -1,4 -2,5l8 3c2,1 3,3 6,4 1,2 1,4 2,6 1,4 3,4 3,5 2,4 3,25 2,30 -1,1 -1,3 -1,4 -1,1 0,1 0,3 -1,2 -2,7 -4,9 -4,6 1,1 -2,8 -1,2 0,2 0,4 0,4 -1,8 4,8 12,1 8,4 28,4 9,-1 22,-1 29,-4 5,-2 3,-6 4,-9 0,-1 1,-1 0,-3 0,0 -1,-2 -1,-3 0,-1 0,-1 0,-3 -1,-2 -2,-1 -3,-5 -4,-12 -1,-6 -2,-10 0,-1 -1,-2 -1,-3 -1,-5 0,-17 0,-23 2,-12 2,-5 5,-12 1,-2 1,-4 2,-6 2,-1 4,-3 6,-4 1,-1 7,-3 7,-3 0,-1 -1,-4 -2,-6 -1,-5 -3,-17 -11,-18 -4,-1 -9,-1 -13,-2 -1,0 -4,-1 -5,-2 -4,1 -4,4 -14,4 -8,0 -11,-1 -16,-4z"/>
       <path class="fil3" d="M714 399c0,0 0,0 0,0l1 1c1,1 2,1 3,1 1,1 2,2 3,3 8,4 22,8 30,7 0,0 0,0 -1,0 -11,-2 -18,-2 -28,-8 -3,-1 -6,-3 -9,-4l1 0z"/>
       <path class="fil3" d="M714 409c2,2 7,3 11,4 2,0 11,1 13,0 -5,0 -9,0 -14,-1 -4,0 -7,-2 -10,-3z"/>
       <path class="fil3" d="M744 394c0,1 0,1 1,2 0,0 0,1 0,1l3 3c1,2 11,11 15,11 -1,-1 -5,-3 -6,-3 -2,-2 -3,-3 -5,-4l-4 -5c-1,-1 -4,-4 -4,-5z"/>
       <path class="fil3" d="M732 356c5,0 11,0 16,-1 1,0 2,0 2,0l2 0c1,0 1,0 1,0 -1,-1 -16,0 -20,1l-1 0z"/>
       <path class="fil3" d="M721 386c1,1 0,0 1,1l8 4c1,1 8,4 10,3 0,-1 -4,-1 -5,-2 -2,0 -3,-1 -5,-1 -3,-2 -6,-4 -9,-5z"/>
       <path class="fil3" d="M732 358c2,1 18,-1 18,-1 0,0 0,0 0,0 -1,-1 -8,0 -9,0 -2,1 -8,0 -9,1z"/>
       <path class="fil3" d="M746 392c1,1 2,3 3,4 1,0 1,0 1,1l2 3c2,1 2,2 4,3 0,1 1,1 2,2 0,0 0,1 1,1 0,-1 -5,-5 -6,-7 -1,-1 -2,-1 -2,-2 -1,-1 -4,-5 -5,-5z"/>
       <path class="fil3" d="M738 318c2,1 7,0 10,-1 0,0 0,0 0,0 1,0 0,0 1,-1 -2,1 -3,1 -5,2 -2,0 -4,0 -6,0z"/>
       <path class="fil3" d="M746 392c0,-1 0,-1 0,-1 0,0 -1,-1 -1,-1 0,0 0,0 0,0 0,1 0,0 0,1 0,0 1,1 1,1 0,0 0,0 0,0z"/>
       <path class="fil3" d="M742 392c-1,-1 -1,-1 -1,-1 1,2 0,1 1,1z"/>
       <path class="fil3" d="M744 394c-1,0 -1,0 -1,0 0,-1 0,-1 0,-1 0,0 0,1 0,1 1,1 0,0 1,0z"/>
       <path class="fil3" d="M740 389c0,0 0,1 0,1 0,0 0,0 0,0 0,0 0,0 0,-1z"/>
       <path class="fil3" d="M743 387c0,0 0,1 0,1 0,0 0,0 1,0l-1 -1z"/>
       <path class="fil3" d="M743 393l-1 -1c0,0 0,1 0,1 0,0 0,0 1,0z"/>
       <line class="fil3" x1="745" y1="390" x2="745" y2= "390" />
      </g>
     </g>
    </g>
   </g>
   <polygon class="fil0" points="646,304 832,304 832,422 646,422 "/>
   <rect class="fil10" x="110" y="477" width="186" height="118"/>
   <polygon class="fil5" points="378,477 564,477 564,596 378,596 "/>
   <g style="clip-path:url(#id6)">
    <g>
     <g>
      <path id="1" class="fil3" d="M472 511c0,0 1,0 2,0 2,0 1,-1 6,-3 3,-1 7,0 9,2 1,2 0,3 0,5 -2,2 -7,2 -10,2 -1,-1 -3,-1 -4,-2l3 4c2,2 5,6 5,9 0,1 -1,4 -2,5 -1,0 -1,0 -1,-1 0,0 -1,0 -1,-1 0,0 1,-1 1,-2 1,-3 -2,-7 -4,-9l-1 -2c-1,-1 -1,-2 -2,-2 -1,1 0,4 -1,6 -1,1 -4,4 -5,4 0,1 -1,1 -1,2 -1,1 -1,2 -1,3 0,0 1,0 1,1 0,2 -4,0 -3,-4 1,-3 6,-5 7,-7 0,-1 1,-5 1,-6 0,0 -1,1 -2,1 -1,1 -4,2 -6,2 -4,0 -7,-1 -7,-4 0,-6 11,-6 16,-3zm-56 62l44 1c2,-4 3,-7 4,-11 2,-3 3,-9 7,-9 4,0 6,10 8,14 0,1 0,2 1,3l1 2c0,0 0,0 0,0l0 1c0,0 0,0 0,0l44 -1c0,-3 0,-6 -1,-9 -1,-9 -2,-18 -3,-27 -2,-10 -4,-24 -8,-32l-84 0c-1,2 -3,6 -3,7 -3,8 -4,17 -6,25 -1,12 -3,24 -4,36z"/>
      <polygon class="fil3" points="429,504 512,504 512,495 429,495 "/>
      <path class="fil3" d="M482 576c0,1 2,3 2,3 2,1 16,1 18,0 8,0 16,0 23,0l0 -4 -43 1z"/>
      <path class="fil3" d="M416 579c3,0 39,1 41,0 1,0 2,-3 2,-3l-43 -1 0 4z"/>
      <path class="fil3" d="M471 513c-2,-2 -5,-3 -8,-2 -1,0 -2,0 -3,1 -1,0 -2,1 -2,2 0,3 5,2 6,2 3,-1 5,-2 7,-3z"/>
      <path class="fil3" d="M476 514c0,0 0,0 1,0 2,1 10,0 11,-2 -2,-1 -4,-1 -6,-1 -3,1 -4,1 -6,3z"/>
     </g>
    </g>
   </g>
   <polygon class="fil0" points="378,477 564,477 564,596 378,596 "/>
   <polygon class="fil5" points="646,477 832,477 832,596 646,596 "/>
   <g style="clip-path:url(#id7)">
    <g>
     <g>
      <path id="1" class="fil7" d="M736 541l0 2c2,2 3,6 5,9 2,3 4,7 6,9 3,3 5,5 10,3 3,-1 8,-3 10,-5 -13,-5 -18,-18 -24,-30 -3,-5 -6,-10 -9,-15 -7,-12 -12,-16 -21,-25 -3,-3 -7,-9 -11,-11 -1,8 1,9 3,15 2,7 2,9 7,13 3,3 6,6 9,10 7,9 10,16 15,25z"/>
      <path class="fil7" d="M705 504c-2,-7 -7,-18 -7,-26 -2,1 -28,23 -9,41 2,2 4,3 6,5 9,9 17,22 19,35 3,19 0,30 20,33 15,3 51,6 62,-2 1,-5 -3,-10 -5,-13 -2,-3 -6,-7 -9,-9 -12,-10 -12,-6 -18,-3 -2,1 -4,2 -6,2 -10,4 -23,3 -29,-4 -7,-7 -21,-49 -24,-59z"/>
      <path class="fil7" d="M690 524c1,4 2,9 3,13 0,4 1,9 1,13 1,5 1,24 3,27 2,1 2,0 4,0 1,-3 0,-22 1,-32l0 -1 0 -3 0 -3c-3,-4 -8,-11 -12,-14z"/>
     </g>
    </g>
   </g>
   <polygon class="fil0" points="646,477 832,477 832,596 646,596 "/>
   <g>
    <path class="fil4" d="M1157 519c-8,4 -197,1 -225,1l0 -365 225 0 0 364z"/>
    <path class="fil3" d="M1062 560c1,-11 -6,-19 -15,-21 -24,-4 -29,34 -5,36 10,1 19,-6 20,-15zm95 -41l0 -364 -225 0 0 365c28,0 217,3 225,-1zm3 -400c14,5 12,17 12,33l0 409c0,38 -11,31 -62,31 -25,0 -169,3 -181,-1 -13,-4 -12,-18 -12,-34l0 -409c0,-38 10,-30 62,-30 23,0 171,-2 181,1z"/>
    <path class="fil2" d="M1062 560c-1,9 -10,16 -20,15 -24,-2 -19,-40 5,-36 9,2 16,10 15,21z"/>
    <g>
     <path class="fil7" d="M976 247c12,4 22,16 30,37l116 19c10,3 14,11 7,27 -6,17 -9,37 -29,51 -7,3 -22,5 -33,5l-19 0c-14,0 -24,0 -31,-5 -6,-5 -9,-10 -12,-16l-11 0c-8,0 -8,-11 0,-11l49 0c6,0 7,-11 0,-11l-60 0c-8,0 -7,-11 0,-11l38 0c7,0 7,-10 0,-10l-45 0c-9,0 -9,-12 0,-12l19 0c-3,-13 -1,-42 -16,-47 -6,-1 -11,10 -20,1 -8,-11 2,-22 17,-17z"/>
     <path class="fil7" d="M1021 396c9,0 16,8 16,17 0,10 -7,17 -16,17 -10,0 -17,-7 -17,-17 0,-9 7,-17 17,-17z"/>
     <path class="fil7" d="M1069 396c9,0 17,8 17,17 0,10 -8,17 -17,17 -9,0 -17,-7 -17,-17 0,-9 8,-17 17,-17z"/>
    </g>
   </g>
   <g>
    <path class="fil11" d="M158 656c-8,1 -12,-4 -14,-10 2,-3 22,-18 25,-19 3,2 7,5 9,8 9,4 27,-2 35,5 -2,9 -10,5 -17,8 -4,4 -17,31 -20,37 -4,-2 -17,-26 -18,-29zm-10 -90c-5,-10 -7,-8 -3,-20 2,-8 5,-15 7,-22 1,6 -2,38 -4,42zm16 153l175 0 -2 -45c7,2 13,7 20,9 10,-15 6,-22 5,-41l-7 -143c7,3 13,7 19,11 30,18 27,21 59,2 23,-14 48,-30 69,-46l-4 -7c-5,-5 -16,-22 -20,-28 -3,-2 0,-1 -4,-2 -6,8 -39,26 -51,31 -18,8 -14,10 -28,0 -21,-13 -42,-29 -51,-52 -2,-6 -1,-10 -8,-12l-50 -12c-7,-3 -6,-6 -11,-9l3 20 2 4 42 210c-33,12 -79,11 -118,9l10 -53c2,-21 2,-41 2,-62 0,-44 -7,-88 -7,-121l-2 -8c-8,7 -42,22 -54,27 -6,3 -18,6 -20,9l-38 125c-6,23 -5,27 5,45l34 63c5,9 2,1 8,5l-3 35 26 12 -1 24z"/>
    <path class="fil4" d="M209 382c0,33 7,77 7,121 0,21 0,41 -2,62l-10 53c39,2 85,3 118,-9l-42 -210 -19 8 14 -13c5,2 1,2 3,1l-3 -20c-2,-4 1,-2 -4,-4 0,14 -3,14 -7,24 -3,6 -8,13 -12,18 -8,-1 -10,-6 -19,-6 -7,1 -14,-1 -20,-3 3,-4 4,-4 8,-6 4,3 3,4 8,6 0,-6 -4,-14 -6,-21 -1,-4 -2,-4 -4,-8 -1,-3 -2,-6 -2,-10 -1,1 -5,4 -6,6 -4,4 -3,4 -2,11z"/>
    <path class="fil12" d="M215 302c-4,4 -6,9 -6,17 1,11 3,9 9,14l-1 32c0,4 1,7 2,10 2,4 3,4 4,8 2,7 6,15 6,21l4 3c9,0 11,5 19,6 4,-5 9,-12 12,-18 4,-10 7,-10 7,-24 1,-6 9,-13 12,-23 1,-5 2,-10 4,-15 1,-5 3,-8 5,-13 1,-3 2,-11 3,-15 1,-23 -13,-10 -28,-21 -7,-5 -16,-16 -26,-9 -2,1 -1,0 -2,1l-2 2c-3,4 -4,6 -6,10 -4,7 -4,17 -8,24 -1,-7 -2,-7 -8,-10z"/>
    <path class="fil12" d="M495 419c3,5 14,15 18,16 7,-3 13,-5 19,-9l31 -26c5,-3 13,-7 12,-15 -10,-2 -39,14 -54,15 2,-3 12,-15 6,-21 -5,-3 -8,8 -18,17 -16,14 -8,6 -14,23z"/>
    <path class="fil13" d="M215 302c6,3 7,3 8,10 4,-7 4,-17 8,-24 2,-4 3,-6 6,-10l2 -2c1,-1 0,0 2,-1 10,-7 19,4 26,9 15,11 29,-2 28,21 -1,4 -2,12 -3,15 6,-6 13,-51 -26,-60 -15,-4 -30,-3 -39,7 -6,6 -13,25 -12,35z"/>
    <path class="fil12" d="M158 656c1,3 14,27 18,29 3,-6 16,-33 20,-37 7,-3 15,1 17,-8 -8,-7 -26,-1 -35,-5 -3,8 -14,16 -20,21z"/>
    <path class="fil4" d="M478 431c4,6 15,23 20,28 6,-6 16,-10 12,-22l3 -2c-4,-1 -15,-11 -18,-16 -3,-2 0,0 -5,-1 -4,5 -10,8 -12,13z"/>
    <path class="fil1" d="M158 656c6,-5 17,-13 20,-21 -2,-3 -6,-6 -9,-8 -3,1 -23,16 -25,19 2,6 6,11 14,10z"/>
    <path class="fil1" d="M233 407l-4 -3c-5,-2 -4,-3 -8,-6 -4,2 -5,2 -8,6 6,2 13,4 20,3z"/>
    <path class="fil1" d="M280 399l-2 -4c-2,1 2,1 -3,-1l-14 13 19 -8z"/>
   </g>
  </g>
 </g>
</svg>
